<mxfile host="app.diagrams.net" agent="Mozilla/5.0 (X11; Ubuntu; Linux x86_64; rv:130.0) Gecko/20100101 Firefox/130.0" version="24.7.17">
  <diagram name="Page-1" id="6-AEnYXzVyYXW8w1BBr7">
    <mxGraphModel dx="1736" dy="638" grid="1" gridSize="10" guides="1" tooltips="1" connect="1" arrows="1" fold="1" page="1" pageScale="1" pageWidth="850" pageHeight="1100" math="0" shadow="0">
      <root>
        <mxCell id="0" />
        <mxCell id="1" parent="0" />
        <mxCell id="yKVFeZzlw9dIkUo7HsWC-3" value="IoT Device" style="fillColor=none;strokeColor=#5A6C86;dashed=1;verticalAlign=top;fontStyle=0;fontColor=#5A6C86;whiteSpace=wrap;html=1;" vertex="1" parent="1">
          <mxGeometry x="225" y="60" width="130" height="270" as="geometry" />
        </mxCell>
        <mxCell id="yKVFeZzlw9dIkUo7HsWC-29" style="edgeStyle=orthogonalEdgeStyle;rounded=0;orthogonalLoop=1;jettySize=auto;html=1;" edge="1" parent="1" source="yKVFeZzlw9dIkUo7HsWC-2" target="yKVFeZzlw9dIkUo7HsWC-10">
          <mxGeometry relative="1" as="geometry" />
        </mxCell>
        <mxCell id="yKVFeZzlw9dIkUo7HsWC-2" value="&lt;div&gt;ESP32&lt;/div&gt;" style="rounded=0;whiteSpace=wrap;html=1;" vertex="1" parent="1">
          <mxGeometry x="230" y="105" width="120" height="60" as="geometry" />
        </mxCell>
        <mxCell id="yKVFeZzlw9dIkUo7HsWC-9" style="edgeStyle=orthogonalEdgeStyle;rounded=0;orthogonalLoop=1;jettySize=auto;html=1;" edge="1" parent="1" source="yKVFeZzlw9dIkUo7HsWC-5" target="yKVFeZzlw9dIkUo7HsWC-2">
          <mxGeometry relative="1" as="geometry" />
        </mxCell>
        <mxCell id="yKVFeZzlw9dIkUo7HsWC-5" value="&lt;p style=&quot;line-height: 0%;&quot;&gt;&lt;font color=&quot;#091019&quot;&gt;Temperature sensor&lt;/font&gt;&lt;/p&gt;" style="image;aspect=fixed;perimeter=ellipsePerimeter;html=1;align=center;shadow=0;dashed=0;fontColor=#4277BB;labelBackgroundColor=default;fontSize=12;spacingTop=0;image=img/lib/ibm/users/sensor.svg;flipV=0;flipH=1;labelPosition=center;verticalLabelPosition=bottom;verticalAlign=top;textDirection=ltr;spacing=0;" vertex="1" parent="1">
          <mxGeometry x="265" y="220" width="50" height="50" as="geometry" />
        </mxCell>
        <mxCell id="yKVFeZzlw9dIkUo7HsWC-30" style="edgeStyle=orthogonalEdgeStyle;rounded=0;orthogonalLoop=1;jettySize=auto;html=1;" edge="1" parent="1" source="yKVFeZzlw9dIkUo7HsWC-10" target="yKVFeZzlw9dIkUo7HsWC-14">
          <mxGeometry relative="1" as="geometry" />
        </mxCell>
        <mxCell id="yKVFeZzlw9dIkUo7HsWC-10" value="IoT MQTT&lt;br&gt;protocol" style="sketch=0;outlineConnect=0;fontColor=#232F3E;gradientColor=none;fillColor=#7AA116;strokeColor=none;dashed=0;verticalLabelPosition=bottom;verticalAlign=top;align=center;html=1;fontSize=12;fontStyle=0;aspect=fixed;pointerEvents=1;shape=mxgraph.aws4.mqtt_protocol;" vertex="1" parent="1">
          <mxGeometry x="425" y="115" width="40" height="40" as="geometry" />
        </mxCell>
        <mxCell id="yKVFeZzlw9dIkUo7HsWC-12" value="Publish" style="text;html=1;align=center;verticalAlign=middle;resizable=0;points=[];autosize=1;strokeColor=none;fillColor=none;" vertex="1" parent="1">
          <mxGeometry x="355" y="105" width="60" height="30" as="geometry" />
        </mxCell>
        <mxCell id="yKVFeZzlw9dIkUo7HsWC-13" value="AWS Cloud" style="points=[[0,0],[0.25,0],[0.5,0],[0.75,0],[1,0],[1,0.25],[1,0.5],[1,0.75],[1,1],[0.75,1],[0.5,1],[0.25,1],[0,1],[0,0.75],[0,0.5],[0,0.25]];outlineConnect=0;gradientColor=none;html=1;whiteSpace=wrap;fontSize=12;fontStyle=0;container=1;pointerEvents=0;collapsible=0;recursiveResize=0;shape=mxgraph.aws4.group;grIcon=mxgraph.aws4.group_aws_cloud_alt;strokeColor=#232F3E;fillColor=none;verticalAlign=top;align=left;spacingLeft=30;fontColor=#232F3E;dashed=0;" vertex="1" parent="1">
          <mxGeometry x="500" y="60" width="760" height="270" as="geometry" />
        </mxCell>
        <mxCell id="yKVFeZzlw9dIkUo7HsWC-17" style="edgeStyle=orthogonalEdgeStyle;rounded=0;orthogonalLoop=1;jettySize=auto;html=1;startArrow=classic;startFill=1;" edge="1" parent="yKVFeZzlw9dIkUo7HsWC-13" source="yKVFeZzlw9dIkUo7HsWC-14" target="yKVFeZzlw9dIkUo7HsWC-16">
          <mxGeometry relative="1" as="geometry" />
        </mxCell>
        <mxCell id="yKVFeZzlw9dIkUo7HsWC-14" value="AWS IoT Core" style="sketch=0;points=[[0,0,0],[0.25,0,0],[0.5,0,0],[0.75,0,0],[1,0,0],[0,1,0],[0.25,1,0],[0.5,1,0],[0.75,1,0],[1,1,0],[0,0.25,0],[0,0.5,0],[0,0.75,0],[1,0.25,0],[1,0.5,0],[1,0.75,0]];outlineConnect=0;fontColor=#232F3E;fillColor=#7AA116;strokeColor=#ffffff;dashed=0;verticalLabelPosition=bottom;verticalAlign=top;align=center;html=1;fontSize=12;fontStyle=0;aspect=fixed;shape=mxgraph.aws4.resourceIcon;resIcon=mxgraph.aws4.iot_core;" vertex="1" parent="yKVFeZzlw9dIkUo7HsWC-13">
          <mxGeometry x="30" y="50" width="50" height="50" as="geometry" />
        </mxCell>
        <mxCell id="yKVFeZzlw9dIkUo7HsWC-18" style="edgeStyle=orthogonalEdgeStyle;rounded=0;orthogonalLoop=1;jettySize=auto;html=1;startArrow=classic;startFill=1;" edge="1" parent="yKVFeZzlw9dIkUo7HsWC-13" source="yKVFeZzlw9dIkUo7HsWC-16" target="yKVFeZzlw9dIkUo7HsWC-15">
          <mxGeometry relative="1" as="geometry">
            <Array as="points">
              <mxPoint x="270" y="75" />
              <mxPoint x="270" y="75" />
            </Array>
          </mxGeometry>
        </mxCell>
        <mxCell id="yKVFeZzlw9dIkUo7HsWC-19" value="Filter by topic" style="edgeLabel;html=1;align=center;verticalAlign=middle;resizable=0;points=[];" vertex="1" connectable="0" parent="yKVFeZzlw9dIkUo7HsWC-18">
          <mxGeometry x="-0.0935" relative="1" as="geometry">
            <mxPoint y="-15" as="offset" />
          </mxGeometry>
        </mxCell>
        <mxCell id="yKVFeZzlw9dIkUo7HsWC-16" value="IoT topic" style="sketch=0;outlineConnect=0;fontColor=#232F3E;gradientColor=none;fillColor=#7AA116;strokeColor=none;dashed=0;verticalLabelPosition=bottom;verticalAlign=top;align=center;html=1;fontSize=12;fontStyle=0;aspect=fixed;pointerEvents=1;shape=mxgraph.aws4.topic_2;" vertex="1" parent="yKVFeZzlw9dIkUo7HsWC-13">
          <mxGeometry x="160" y="50" width="33.97" height="50" as="geometry" />
        </mxCell>
        <mxCell id="yKVFeZzlw9dIkUo7HsWC-22" style="edgeStyle=orthogonalEdgeStyle;rounded=0;orthogonalLoop=1;jettySize=auto;html=1;" edge="1" parent="yKVFeZzlw9dIkUo7HsWC-13" source="yKVFeZzlw9dIkUo7HsWC-15" target="yKVFeZzlw9dIkUo7HsWC-20">
          <mxGeometry relative="1" as="geometry">
            <Array as="points">
              <mxPoint x="340" y="75" />
              <mxPoint x="340" y="75" />
            </Array>
          </mxGeometry>
        </mxCell>
        <mxCell id="yKVFeZzlw9dIkUo7HsWC-15" value="&lt;div&gt;IoT rule&lt;/div&gt;" style="sketch=0;outlineConnect=0;fontColor=#232F3E;gradientColor=none;fillColor=#7AA116;strokeColor=none;dashed=0;verticalLabelPosition=bottom;verticalAlign=top;align=center;html=1;fontSize=12;fontStyle=0;aspect=fixed;pointerEvents=1;shape=mxgraph.aws4.rule;" vertex="1" parent="yKVFeZzlw9dIkUo7HsWC-13">
          <mxGeometry x="290" y="40" width="35.39" height="60" as="geometry" />
        </mxCell>
        <mxCell id="yKVFeZzlw9dIkUo7HsWC-20" value="&lt;div&gt;IoT Action&lt;/div&gt;" style="sketch=0;outlineConnect=0;fontColor=#232F3E;gradientColor=none;fillColor=#7AA116;strokeColor=none;dashed=0;verticalLabelPosition=bottom;verticalAlign=top;align=center;html=1;fontSize=12;fontStyle=0;aspect=fixed;pointerEvents=1;shape=mxgraph.aws4.action;" vertex="1" parent="yKVFeZzlw9dIkUo7HsWC-13">
          <mxGeometry x="410" y="55" width="40" height="40" as="geometry" />
        </mxCell>
        <mxCell id="yKVFeZzlw9dIkUo7HsWC-23" value="Lambda" style="sketch=0;points=[[0,0,0],[0.25,0,0],[0.5,0,0],[0.75,0,0],[1,0,0],[0,1,0],[0.25,1,0],[0.5,1,0],[0.75,1,0],[1,1,0],[0,0.25,0],[0,0.5,0],[0,0.75,0],[1,0.25,0],[1,0.5,0],[1,0.75,0]];outlineConnect=0;fontColor=#232F3E;fillColor=#ED7100;strokeColor=#ffffff;dashed=0;verticalLabelPosition=bottom;verticalAlign=top;align=center;html=1;fontSize=12;fontStyle=0;aspect=fixed;shape=mxgraph.aws4.resourceIcon;resIcon=mxgraph.aws4.lambda;" vertex="1" parent="yKVFeZzlw9dIkUo7HsWC-13">
          <mxGeometry x="530" y="50" width="50" height="50" as="geometry" />
        </mxCell>
        <mxCell id="yKVFeZzlw9dIkUo7HsWC-24" style="edgeStyle=orthogonalEdgeStyle;rounded=0;orthogonalLoop=1;jettySize=auto;html=1;entryX=0;entryY=0.5;entryDx=0;entryDy=0;entryPerimeter=0;" edge="1" parent="yKVFeZzlw9dIkUo7HsWC-13" source="yKVFeZzlw9dIkUo7HsWC-20" target="yKVFeZzlw9dIkUo7HsWC-23">
          <mxGeometry relative="1" as="geometry" />
        </mxCell>
        <mxCell id="yKVFeZzlw9dIkUo7HsWC-25" value="Trigger" style="edgeLabel;html=1;align=center;verticalAlign=middle;resizable=0;points=[];" vertex="1" connectable="0" parent="yKVFeZzlw9dIkUo7HsWC-24">
          <mxGeometry x="-0.0026" relative="1" as="geometry">
            <mxPoint y="-15" as="offset" />
          </mxGeometry>
        </mxCell>
        <mxCell id="yKVFeZzlw9dIkUo7HsWC-26" value="DynamoDB" style="sketch=0;points=[[0,0,0],[0.25,0,0],[0.5,0,0],[0.75,0,0],[1,0,0],[0,1,0],[0.25,1,0],[0.5,1,0],[0.75,1,0],[1,1,0],[0,0.25,0],[0,0.5,0],[0,0.75,0],[1,0.25,0],[1,0.5,0],[1,0.75,0]];outlineConnect=0;fontColor=#232F3E;fillColor=#C925D1;strokeColor=#ffffff;dashed=0;verticalLabelPosition=bottom;verticalAlign=top;align=center;html=1;fontSize=12;fontStyle=0;aspect=fixed;shape=mxgraph.aws4.resourceIcon;resIcon=mxgraph.aws4.dynamodb;" vertex="1" parent="yKVFeZzlw9dIkUo7HsWC-13">
          <mxGeometry x="680" y="50" width="50" height="50" as="geometry" />
        </mxCell>
        <mxCell id="yKVFeZzlw9dIkUo7HsWC-27" style="edgeStyle=orthogonalEdgeStyle;rounded=0;orthogonalLoop=1;jettySize=auto;html=1;" edge="1" parent="yKVFeZzlw9dIkUo7HsWC-13" source="yKVFeZzlw9dIkUo7HsWC-23" target="yKVFeZzlw9dIkUo7HsWC-26">
          <mxGeometry relative="1" as="geometry" />
        </mxCell>
        <mxCell id="yKVFeZzlw9dIkUo7HsWC-28" value="Store" style="edgeLabel;html=1;align=center;verticalAlign=middle;resizable=0;points=[];" vertex="1" connectable="0" parent="yKVFeZzlw9dIkUo7HsWC-27">
          <mxGeometry x="0.0433" y="-2" relative="1" as="geometry">
            <mxPoint y="-17" as="offset" />
          </mxGeometry>
        </mxCell>
        <mxCell id="yKVFeZzlw9dIkUo7HsWC-31" value="SageMaker Canvas" style="sketch=0;points=[[0,0,0],[0.25,0,0],[0.5,0,0],[0.75,0,0],[1,0,0],[0,1,0],[0.25,1,0],[0.5,1,0],[0.75,1,0],[1,1,0],[0,0.25,0],[0,0.5,0],[0,0.75,0],[1,0.25,0],[1,0.5,0],[1,0.75,0]];outlineConnect=0;fontColor=#232F3E;fillColor=#01A88D;strokeColor=#ffffff;dashed=0;verticalLabelPosition=bottom;verticalAlign=top;align=center;html=1;fontSize=12;fontStyle=0;aspect=fixed;shape=mxgraph.aws4.resourceIcon;resIcon=mxgraph.aws4.sagemaker;" vertex="1" parent="yKVFeZzlw9dIkUo7HsWC-13">
          <mxGeometry x="530" y="160" width="50" height="50" as="geometry" />
        </mxCell>
        <mxCell id="yKVFeZzlw9dIkUo7HsWC-32" style="edgeStyle=orthogonalEdgeStyle;rounded=0;orthogonalLoop=1;jettySize=auto;html=1;entryX=1;entryY=0.5;entryDx=0;entryDy=0;entryPerimeter=0;" edge="1" parent="yKVFeZzlw9dIkUo7HsWC-13" source="yKVFeZzlw9dIkUo7HsWC-26" target="yKVFeZzlw9dIkUo7HsWC-31">
          <mxGeometry relative="1" as="geometry">
            <mxPoint x="660" y="90" as="sourcePoint" />
            <Array as="points">
              <mxPoint x="650" y="90" />
              <mxPoint x="650" y="185" />
            </Array>
          </mxGeometry>
        </mxCell>
      </root>
    </mxGraphModel>
  </diagram>
</mxfile>
